HIERARCHY
ROOT Hips
{
	OFFSET 0.000000 0.000000 0.000000
	CHANNELS 6 Xposition Yposition Zposition Xrotation Zrotation Yrotation
	JOINT Spine
	{
		OFFSET 0.000000 0.000000 -0.744707
		CHANNELS 6 Xposition Yposition Zposition Xrotation Zrotation Yrotation
		JOINT Spine1
		{
			OFFSET 0.000000 0.000000 -2.032240
			CHANNELS 6 Xposition Yposition Zposition Xrotation Zrotation Yrotation
			JOINT Neck
			{
				OFFSET 0.000000 0.000000 -2.213880
				CHANNELS 6 Xposition Yposition Zposition Xrotation Zrotation Yrotation
				JOINT Head
				{
					OFFSET 0.000000 0.181636 -1.407680
					CHANNELS 6 Xposition Yposition Zposition Xrotation Zrotation Yrotation
					End Site
					{
						OFFSET 0.000000 0.000000 -1.816356
					}
				}
			}
			JOINT LeftShoulder
			{
				OFFSET 0.365767 -0.048012 -1.787590
				CHANNELS 6 Xposition Yposition Zposition Xrotation Zrotation Yrotation
				JOINT LeftArm
				{
					OFFSET 1.305160 0.000000 0.000000
					CHANNELS 6 Xposition Yposition Zposition Xrotation Zrotation Yrotation
					JOINT LeftForeArm
					{
						OFFSET 2.559210 0.000000 0.000000
						CHANNELS 6 Xposition Yposition Zposition Xrotation Zrotation Yrotation
						JOINT LeftHand
						{
							OFFSET 2.378450 0.000000 0.000000
							CHANNELS 6 Xposition Yposition Zposition Xrotation Zrotation Yrotation
							End Site
							{
								OFFSET 1.362267 0.000000 0.000000
							}
						}
					}
				}
			}
			JOINT RightShoulder
			{
				OFFSET -0.360721 -0.048012 -1.787590
				CHANNELS 6 Xposition Yposition Zposition Xrotation Zrotation Yrotation
				JOINT RightArm
				{
					OFFSET -1.305160 0.000000 0.000000
					CHANNELS 6 Xposition Yposition Zposition Xrotation Zrotation Yrotation
					JOINT RightForeArm
					{
						OFFSET -2.559210 0.000000 0.000000
						CHANNELS 6 Xposition Yposition Zposition Xrotation Zrotation Yrotation
						JOINT RightHand
						{
							OFFSET -2.378450 0.000000 0.000000
							CHANNELS 6 Xposition Yposition Zposition Xrotation Zrotation Yrotation
							End Site
							{
								OFFSET -1.362267 0.000000 0.000000
							}
						}
					}
				}
			}
		}
	}
	JOINT LeftUpLeg
	{
		OFFSET 0.908180 0.000000 0.000000
		CHANNELS 6 Xposition Yposition Zposition Xrotation Zrotation Yrotation
		JOINT LeftLeg
		{
			OFFSET 0.000000 -0.000003 3.819490
			CHANNELS 6 Xposition Yposition Zposition Xrotation Zrotation Yrotation
			JOINT LeftFoot
			{
				OFFSET 0.000000 -0.000003 4.004300
				CHANNELS 6 Xposition Yposition Zposition Xrotation Zrotation Yrotation
				JOINT LeftToeBase
				{
					OFFSET 0.000000 1.362270 0.590317
					CHANNELS 6 Xposition Yposition Zposition Xrotation Zrotation Yrotation
					End Site
					{
						OFFSET 0.000000 0.363271 0.000000
					}
				}
			}
		}
	}
	JOINT RightUpLeg
	{
		OFFSET -0.908180 0.000000 0.000000
		CHANNELS 6 Xposition Yposition Zposition Xrotation Zrotation Yrotation
		JOINT RightLeg
		{
			OFFSET 0.000000 -0.000003 3.819490
			CHANNELS 6 Xposition Yposition Zposition Xrotation Zrotation Yrotation
			JOINT RightFoot
			{
				OFFSET 0.000000 -0.000003 4.004300
				CHANNELS 6 Xposition Yposition Zposition Xrotation Zrotation Yrotation
				JOINT RightToeBase
				{
					OFFSET 0.000000 1.362270 0.590317
					CHANNELS 6 Xposition Yposition Zposition Xrotation Zrotation Yrotation
					End Site
					{
						OFFSET 0.000000 0.363271 0.000000
					}
				}
			}
		}
	}
}
MOTION
Frames: 4
Frame Time: 0.016667
-1.660254 1.982770 -7.952991 7.394871 2.552879 -0.328127 -0.000000 -0.000000 -0.744707 -21.889611 -10.760330 -1.508390 0.000000 -0.000000 -2.032238 20.974171 -5.194784 9.198083 0.000000 0.000000 -2.213882 0.468702 2.244818 7.037004 -0.000000 0.181636 -1.407679 7.370828 1.329972 -1.256913 0.365767 -0.048012 -1.787592 -2.998125 -0.708671 13.430716 1.305159 -0.000000 0.000002 3.118290 13.156935 -47.997187 2.559211 -0.000000 0.000001 1045.192484 75.710215 1077.277653 2.378450 0.000001 0.000001 -35.857523 -16.517696 21.563935 -0.360721 -0.048012 -1.787590 -4.502177 -7.864453 -7.374015 -1.305160 -0.000000 0.000001 -18.931968 -35.026569 54.415383 -2.559211 0.000001 0.000001 76.394068 -51.871964 -131.581600 -2.378449 -0.000000 0.000001 -18.441721 0.651996 -56.789403 0.908180 -0.000000 0.000001 -9.055551 -1.870920 1.218712 -0.000000 -0.000002 3.819489 10.490941 -4.940330 2.363794 -0.000001 -0.000001 4.004299 -5.114825 -21.944090 3.585553 0.000000 1.362270 0.590316 0.000001 0.000000 0.000001 -0.908180 0.000000 0.000002 -18.860280 -6.739440 -16.956969 -0.000001 -0.000001 3.819487 20.626878 -15.421836 5.422889 0.000001 -0.000000 4.004299 2.090798 47.841213 4.732400 -0.000001 1.362269 0.590318 0.000003 0.000005 -0.000003 
-1.642591 1.976746 -7.954000 7.374642 2.705424 -0.330470 0.000000 -0.000000 -0.744706 -21.838246 -10.604119 -1.425192 0.000000 0.000001 -2.032237 20.899368 -5.108922 9.019885 0.000000 0.000001 -2.213881 0.689909 2.000972 7.224205 -0.000000 0.181636 -1.407681 7.186489 1.049203 -1.518127 0.365767 -0.048012 -1.787592 -3.214109 -0.375116 13.350683 1.305161 0.000000 0.000003 1.107990 12.173601 -47.953662 2.559211 -0.000000 0.000002 1046.679936 75.582552 1079.616419 2.378450 0.000001 0.000001 -36.545419 -16.056805 24.602459 -0.360721 -0.048012 -1.787591 -4.334187 -7.747287 -7.331903 -1.305161 -0.000000 0.000000 -19.157492 -34.884105 55.057441 -2.559210 -0.000001 0.000000 76.632550 -51.830173 -131.353513 -2.378449 -0.000002 0.000000 -17.944659 0.831199 -56.925501 0.908180 -0.000000 0.000001 -9.136193 -1.909687 1.127570 -0.000000 -0.000001 3.819490 10.628647 -5.262178 2.326238 -0.000001 -0.000002 4.004299 -5.165115 -21.737647 3.628080 0.000000 1.362270 0.590316 -0.000001 -0.000005 -0.000001 -0.908180 -0.000000 0.000002 -18.992543 -7.128812 -16.786675 -0.000000 -0.000002 3.819490 21.031915 -14.962537 5.695355 0.000001 -0.000001 4.004299 0.776766 47.968320 3.828404 -0.000001 1.362270 0.590316 0.000006 0.000004 -0.000000 
-1.626782 1.970096 -7.955175 7.321686 2.833916 -0.349238 0.000000 0.000000 -0.744704 -21.741817 -10.400434 -1.369419 0.000000 -0.000000 -2.032238 20.833248 -5.013475 8.878950 0.000000 0.000000 -2.213880 0.913694 1.722572 7.353840 0.000000 0.181636 -1.407677 6.976140 0.742256 -1.740577 0.365767 -0.048012 -1.787588 -3.525584 -0.006489 13.291604 1.305160 0.000000 0.000000 -0.528918 11.355727 -47.812625 2.559211 0.000000 -0.000001 1048.048050 75.474758 1082.010483 2.378449 0.000002 0.000000 -37.351825 -15.527790 27.653570 -0.360721 -0.048012 -1.787592 -4.213166 -7.687318 -7.314272 -1.305160 -0.000000 -0.000001 -19.073766 -34.946308 55.558511 -2.559211 0.000001 -0.000001 76.446619 -51.691118 -130.961788 -2.378451 0.000001 0.000003 -17.537259 1.015185 -57.169971 0.908180 0.000000 0.000002 -9.218507 -1.790679 1.161725 -0.000000 -0.000003 3.819491 10.870454 -5.235835 2.086895 -0.000001 -0.000001 4.004301 -5.300347 -21.941243 3.802487 0.000000 1.362270 0.590316 0.000001 0.000007 0.000000 -0.908180 -0.000000 0.000001 -19.057088 -7.533111 -16.579418 -0.000000 -0.000002 3.819488 21.401681 -14.383467 5.948180 0.000002 -0.000001 4.004301 -0.215502 47.941952 3.305378 -0.000000 1.362270 0.590316 0.000006 -0.000003 0.000001 
-1.611688 1.964398 -7.956424 7.277467 2.947426 -0.371976 -0.000000 0.000000 -0.744706 -21.665548 -10.162219 -1.304429 0.000000 0.000001 -2.032242 20.766200 -4.904453 8.723774 -0.000000 0.000002 -2.213879 1.156176 1.426592 7.514965 0.000000 0.181636 -1.407683 6.772878 0.408394 -2.046778 0.365767 -0.048012 -1.787589 -3.749759 0.288894 13.228560 1.305160 -0.000000 0.000001 -2.234532 10.564762 -47.489711 2.559211 -0.000000 -0.000001 1048.946138 75.266089 1083.683715 2.378449 -0.000000 -0.000001 -38.040069 -14.982213 30.776146 -0.360721 -0.048012 -1.787591 -4.009314 -7.589457 -7.298459 -1.305160 -0.000000 0.000001 -19.074249 -35.037245 56.044065 -2.559211 0.000000 0.000000 76.365982 -51.670719 -130.554394 -2.378448 0.000000 0.000001 -17.084726 1.064540 -57.430396 0.908180 -0.000000 0.000002 -9.313792 -1.804544 1.181052 -0.000000 -0.000003 3.819490 11.103173 -5.196719 1.907911 -0.000001 -0.000002 4.004300 -5.405535 -22.051607 3.918919 0.000000 1.362270 0.590316 0.000002 0.000001 0.000001 -0.908180 0.000000 0.000000 -19.081651 -7.913506 -16.372273 -0.000001 -0.000002 3.819488 21.688856 -14.226954 6.117172 0.000001 -0.000001 4.004302 -1.039197 47.935268 2.740015 -0.000000 1.362271 0.590316 0.000005 0.000004 -0.000000 
